HIERARCHY
ROOT Hips
{
	OFFSET 0.00000 0.00000 0.00000
	CHANNELS 6 Xposition Yposition Zposition Zrotation Yrotation Xrotation 
	JOINT LHipJoint
	{
		OFFSET 0 0 0
		CHANNELS 3 Zrotation Yrotation Xrotation
		JOINT LeftHip
		{
			OFFSET 1.41261 -1.82971 0.84908
			CHANNELS 3 Zrotation Yrotation Xrotation
			JOINT LeftKnee
			{
				OFFSET 2.52554 -6.93888 0.00000
				CHANNELS 3 Zrotation Yrotation Xrotation
				JOINT LeftAnkle
				{
					OFFSET 2.56654 -7.05152 0.00000
					CHANNELS 3 Zrotation Yrotation Xrotation
					JOINT LeftToe
					{
						OFFSET 0.21698 -0.59616 1.85369
						CHANNELS 3 Zrotation Yrotation Xrotation
						End Site
						{
							OFFSET 0.00000 -0.00000 0.97832
						}
					}
				}
			}
		}
	}
	JOINT RHipJoint
	{
		OFFSET 0 0 0
		CHANNELS 3 Zrotation Yrotation Xrotation
		JOINT RightHip
		{
			OFFSET -1.12808 -1.82971 0.84907
			CHANNELS 3 Zrotation Yrotation Xrotation
			JOINT RightKnee
			{
				OFFSET -2.53425 -6.96280 0.00000
				CHANNELS 3 Zrotation Yrotation Xrotation
				JOINT RightAnkle
				{
					OFFSET -2.58413 -7.09983 0.00000
					CHANNELS 3 Zrotation Yrotation Xrotation
					JOINT RightToe
					{
						OFFSET -0.26437 -0.72636 1.92241
						CHANNELS 3 Zrotation Yrotation Xrotation
						End Site
						{
							OFFSET -0.00000 -0.00000 1.02667
						}
					}
				}
			}
		}
	}
	JOINT lowerback
	{
		OFFSET 0 0 0
		CHANNELS 3 Zrotation Yrotation Xrotation
		JOINT Chest
		{
			OFFSET -0.02096 2.02288 -0.14752
			CHANNELS 3 Zrotation Yrotation Xrotation
			JOINT Chest2
			{
				OFFSET 0.03477 2.03136 -0.02358
				CHANNELS 3 Zrotation Yrotation Xrotation
				JOINT lowerneck
				{
					OFFSET 0 0 0
					CHANNELS 3 Zrotation Yrotation Xrotation
					JOINT Neck
					{
						OFFSET 0.00174 1.74359 0.19336
						CHANNELS 3 Zrotation Yrotation Xrotation
						JOINT Head
						{
							OFFSET -0.03054 1.76140 -0.17751
							CHANNELS 3 Zrotation Yrotation Xrotation
							End Site
							{
								OFFSET -0.00863 1.77239 -0.08120
							}
						}
					}
				}
				JOINT LeftCollar
				{
					OFFSET 0 0 0
					CHANNELS 3 Zrotation Yrotation Xrotation
					JOINT LeftShoulder
					{
						OFFSET 3.68685 1.32687 -0.67367
CHANNELS 3 Zrotation Xrotation Yrotation
						JOINT LeftElbow
						{
OFFSET 0 -4.764680 -0.000000
CHANNELS 3 Zrotation Xrotation Yrotation
							JOINT LeftWrist
							{
OFFSET 0 -3.527120 -0.000000
CHANNELS 3 Zrotation Xrotation Yrotation
								JOINT lhand
								{
									OFFSET 0 0 0
CHANNELS 3 Zrotation Xrotation Yrotation
									JOINT LFingers
									{
OFFSET 0 -0.859560 -0.000000
CHANNELS 3 Zrotation Xrotation Yrotation
										End Site
										{
OFFSET 0 -0.693000 -0.000000
										}
									}
								}
								JOINT LThumb
								{
OFFSET 0 0.000000 0.000000
CHANNELS 3 Zrotation Xrotation Yrotation
									End Site
									{
OFFSET 0 -0.703580 0.703580
									}
								}
							}
						}
					}
				}
				JOINT RightCollar
				{
					OFFSET 0 0 0
					CHANNELS 3 Zrotation Yrotation Xrotation
					JOINT RightShoulder
					{
						OFFSET -3.31304 1.28268 -0.97357
CHANNELS 3 Zrotation Xrotation Yrotation
						JOINT RightElbow
						{
OFFSET 0 -4.905770 -0.000000
CHANNELS 3 Zrotation Xrotation Yrotation
							JOINT RightWrist
							{
OFFSET 0 -3.426920 0.000000
CHANNELS 3 Zrotation Xrotation Yrotation
								JOINT rhand
								{
									OFFSET 0 0 0
CHANNELS 3 Zrotation Xrotation Yrotation
									JOINT RFingers
									{
OFFSET 0 -0.740960 -0.000000
CHANNELS 3 Zrotation Xrotation Yrotation
										End Site
										{
OFFSET 0 -0.597380 -0.000000
										}
									}
								}
								JOINT RThumb
								{
OFFSET 0 0.000000 0.000000
CHANNELS 3 Zrotation Xrotation Yrotation
									End Site
									{
OFFSET 0 -0.606500 0.606500
									}
								}
							}
						}
					}
				}
			}
		}
	}
}
MOTION
Frames: 12
Frame Time: 0.008333333333333333
-0.329392 17.881256 1.808303 181.367035 -1.983420 181.223731 0.000000 0.000000 0.000000 -12.244988 -26.557478 -0.319253 1.049913 6.515631 18.288038 -1.783016 -30.359827 -10.349429 1.886312 -8.621052 -24.619545 0.000000 0.000000 0.000000 16.098228 11.865204 -7.203704 -1.181011 -6.897160 19.411054 0.723153 24.107513 -11.557725 -0.001933 -0.286044 0.785976 -1.558996 2.515243 13.781046 1.039781 2.942211 1.879194 1.437016 1.389370 -5.872040 -5.895627 -4.716636 -11.311778 8.604776 -7.465430 16.400917 3.011766 -3.388459 7.441913 0.000000 0.000000 0.000000 -9.532078 13.034316 0.013798 23.664203 -34.806952 7.514128 7.664142 -4.727795 14.482917 0.000000 0.000000 0.000000 -7.125000 0.000000 0.000000 -13.449634 15.631048 -9.600157 0.000000 0.000000 0.000000 -1.491531 -4.889057 22.231502 -23.672075 -34.814928 -7.518825 -5.386368 -2.949721 35.392928 0.000000 0.000000 0.000000 7.125000 0.000000 0.000000 33.674128 62.294948 -15.061392
-0.571797 17.840707 1.838438 181.287264 3.519616 181.294207 0.000000 0.000000 0.000000 -13.003454 -23.980741 0.026994 1.021636 6.429986 18.037320 -1.226949 -27.498290 -11.150523 1.788955 -8.369134 -23.865646 0.000000 0.000000 0.000000 15.325364 13.610379 -7.768101 -1.196042 -6.939245 19.535515 1.080668 26.067622 -10.671539 -0.029209 1.037929 -2.853604 -2.264371 2.080814 13.795929 0.916382 2.721274 2.055599 1.730022 1.492593 -5.704564 -6.146544 -4.955583 -10.968547 9.219051 -8.004112 16.556729 3.199587 -3.651976 7.509685 0.000000 0.000000 0.000000 -10.185197 12.852044 1.636406 22.074057 -33.057935 6.627375 7.495444 -3.642680 14.369587 0.000000 0.000000 0.000000 -7.125000 0.000000 0.000000 -13.567623 15.751222 -9.653122 0.000000 0.000000 0.000000 -1.566106 -5.365054 25.801913 -25.231944 -36.437897 -8.428185 -4.402016 -3.536117 35.119782 0.000000 0.000000 0.000000 7.125000 0.000000 0.000000 34.355469 61.823277 -15.022102
-0.824391 17.814639 1.872551 180.938753 8.684598 181.455836 0.000000 0.000000 0.000000 -13.972856 -19.595809 -0.164498 0.946431 6.195132 17.351920 -0.284962 -22.432391 -13.671333 2.706914 -10.197547 -29.625478 0.000000 0.000000 0.000000 14.235255 15.222705 -8.605727 -1.195563 -6.937891 19.531440 1.326462 27.054347 -9.783175 -0.128492 2.285835 -6.297231 -3.421647 1.720962 13.922517 0.862080 2.067162 2.213839 2.450105 1.192008 -5.608589 -6.237855 -5.896385 -10.873035 9.629961 -8.262291 16.652660 3.377302 -3.318513 7.580156 0.000000 0.000000 0.000000 -10.749873 12.624682 2.749747 20.379403 -31.092869 5.727845 5.927609 -1.866864 14.143659 0.000000 0.000000 0.000000 -7.125000 0.000000 0.000000 -14.629366 16.051555 -10.360975 0.000000 0.000000 0.000000 -1.816630 -5.570806 28.673755 -27.178185 -38.344080 -9.611253 -3.811678 -4.023068 34.175506 0.000000 0.000000 0.000000 7.125000 0.000000 0.000000 33.930862 60.904247 -14.074363
-1.066589 17.819640 1.923637 180.389446 13.511525 182.033334 0.000000 0.000000 0.000000 -15.045774 -16.467440 -1.102558 0.889277 6.010860 16.815917 0.126543 -18.353632 -14.043338 3.380525 -11.282950 -33.244873 0.000000 0.000000 0.000000 12.965492 17.200090 -9.620576 -1.146698 -6.799107 19.121634 0.939646 25.483243 -11.212563 -0.445210 4.247152 -11.777971 -4.870090 1.216110 13.846274 0.686716 1.153153 2.131716 3.258991 0.763094 -5.609735 -6.498805 -6.278604 -11.145477 10.471226 -8.922871 17.125326 3.623095 -3.547098 7.896384 0.000000 0.000000 0.000000 -10.443496 12.101867 3.204850 18.183227 -28.384361 4.639518 3.912740 1.648421 13.578317 0.000000 0.000000 0.000000 -7.125000 0.000000 0.000000 -16.012850 16.683361 -11.190009 0.000000 0.000000 0.000000 -1.661571 -5.308079 30.018791 -28.964062 -39.986125 -10.738635 -3.569373 -3.669558 32.123134 0.000000 0.000000 0.000000 7.125000 0.000000 0.000000 32.134825 59.145162 -11.862203
-1.305527 17.862297 1.947133 180.012184 18.164581 182.521331 0.000000 0.000000 0.000000 -15.798176 -13.495120 -1.989349 0.823741 5.789932 16.176371 0.285494 -16.169249 -14.100196 3.735375 -11.799697 -35.027001 0.000000 0.000000 0.000000 11.989470 17.750695 -10.269766 -1.045725 -6.502855 18.250777 0.023412 20.567378 -14.374538 -0.328201 3.653184 -10.105927 -5.747568 0.681095 13.725611 0.399140 0.278718 1.986265 3.615389 0.343379 -5.617868 -6.305140 -6.658272 -11.229146 10.900869 -9.596842 17.576812 3.657726 -3.791811 8.138476 0.000000 0.000000 0.000000 -9.047804 11.670738 2.837195 16.120428 -25.678374 3.701029 -0.184090 7.335987 13.114081 0.000000 0.000000 0.000000 -7.125000 0.000000 0.000000 -18.769813 17.244454 -13.090860 0.000000 0.000000 0.000000 -1.294849 -4.481052 30.478215 -30.066730 -40.949870 -11.453511 -3.969616 -5.130767 31.825199 0.000000 0.000000 0.000000 7.125000 0.000000 0.000000 31.464658 58.984046 -11.459027
-1.556440 17.892232 1.959784 180.752750 23.275604 183.095521 0.000000 0.000000 0.000000 -15.279449 -9.983600 -2.414953 0.705603 5.367579 14.960290 0.341315 -14.498139 -13.728547 3.800297 -11.889746 -35.343208 0.000000 0.000000 0.000000 12.299087 15.424314 -11.593988 -0.974939 -6.285809 17.615959 -0.622011 14.145230 -16.147941 -0.087910 1.882280 -5.181295 -5.347707 0.149659 13.753192 0.439848 -0.385409 1.911106 3.554477 0.004375 -5.646193 -6.578108 -6.862162 -10.900539 11.727094 -9.997115 17.418816 3.939457 -3.941550 8.126061 0.000000 0.000000 0.000000 -7.369749 11.060028 2.248220 14.563745 -23.534303 3.049931 -6.102402 14.174865 12.673540 0.000000 0.000000 0.000000 -7.125000 0.000000 0.000000 -22.663321 17.700466 -16.014561 0.000000 0.000000 0.000000 -1.379012 -3.607352 30.594596 -30.614748 -41.414524 -11.814172 -5.458364 -5.857177 32.258392 0.000000 0.000000 0.000000 7.125000 0.000000 0.000000 30.387979 59.690808 -11.540096
-1.790390 17.917198 1.953234 180.799609 28.971045 183.233569 0.000000 0.000000 0.000000 -15.800148 -6.757037 -2.242609 0.583498 4.890739 13.597264 0.439965 -11.746977 -13.465997 3.864127 -11.977368 -35.652038 0.000000 0.000000 0.000000 12.187957 10.691188 -13.602589 -0.970941 -6.272560 17.577654 -0.961105 7.605315 -17.573269 -0.007114 -0.372623 1.024120 -5.866572 -0.174031 13.560115 0.481540 -0.881123 1.993361 3.979008 -0.241055 -5.392338 -7.296204 -7.127261 -10.555863 12.588886 -10.420567 17.235870 4.304065 -4.138311 8.135589 0.000000 0.000000 0.000000 -5.639254 10.858882 0.924082 13.987636 -22.716913 2.823399 -11.806787 18.633414 11.532131 0.000000 0.000000 0.000000 -7.125000 0.000000 0.000000 -26.424937 18.634518 -18.690354 0.000000 0.000000 0.000000 -2.051866 -3.337658 30.427983 -30.230727 -41.089770 -11.561213 -6.737953 -6.411939 32.515890 0.000000 0.000000 0.000000 7.125000 0.000000 0.000000 29.345368 60.208380 -11.468932
-2.013105 17.931292 1.932121 180.128644 35.438130 182.950304 0.000000 0.000000 0.000000 -17.263336 -4.085283 -1.980556 0.498071 4.524512 12.557286 0.527037 -7.744626 -13.218051 3.970575 -12.121132 -36.161704 0.000000 0.000000 0.000000 11.807545 4.825532 -16.704771 -1.215610 -6.993762 19.696832 -0.965029 1.166075 -18.212370 -0.158014 -2.561150 7.059310 -6.909354 -0.206416 13.303600 0.289587 -1.081583 1.952234 4.397048 -0.330349 -5.254959 -7.663976 -7.428722 -10.301827 12.917120 -10.877290 17.250359 4.425133 -4.368691 8.185701 0.000000 0.000000 0.000000 -3.637102 10.636649 0.744110 13.455426 -21.950859 2.621098 -13.242534 21.307867 10.578552 0.000000 0.000000 0.000000 -7.125000 0.000000 0.000000 -27.480511 19.443274 -19.077181 0.000000 0.000000 0.000000 -2.771446 -3.330713 29.283102 -29.011423 -40.030772 -10.767992 -6.885128 -6.326478 32.977019 0.000000 0.000000 0.000000 7.125000 0.000000 0.000000 29.635114 60.639147 -11.901253
-2.205945 17.928660 1.898496 180.164446 42.099681 182.778815 0.000000 0.000000 0.000000 -17.839304 -1.079693 -1.658767 0.430117 4.208214 11.663330 0.527987 -4.108898 -12.953610 3.913491 -12.044334 -35.889041 0.000000 0.000000 0.000000 12.551724 0.122875 -19.281881 -1.732153 -8.279730 23.569624 -0.877214 -4.065559 -19.638846 -0.548513 -4.727189 13.135095 -7.345415 -0.231508 12.952947 0.364984 -1.158304 1.959148 4.730269 -0.374899 -5.033247 -8.257569 -7.765026 -9.999473 13.138187 -11.343295 17.403954 4.548515 -4.626667 8.284310 0.000000 0.000000 0.000000 -1.797500 10.185072 3.325103 12.780951 -20.965127 2.374581 -10.666101 23.705382 10.490266 0.000000 0.000000 0.000000 -7.125000 0.000000 0.000000 -25.903610 19.627383 -17.575041 0.000000 0.000000 0.000000 -3.623585 -3.729395 27.175398 -27.242243 -38.407326 -9.649939 -7.872513 -5.248784 33.747815 0.000000 0.000000 0.000000 7.125000 0.000000 0.000000 29.389817 61.539344 -12.424260
-2.375480 17.913437 1.842907 179.903983 49.073261 182.142783 0.000000 0.000000 0.000000 -18.526817 2.501756 -1.383113 0.383253 3.975622 11.008156 0.490718 -0.959838 -12.955454 3.702541 -11.753311 -34.865302 0.000000 0.000000 0.000000 12.935541 -3.758715 -21.331648 -2.519662 -9.863395 28.544048 -0.686506 -7.682986 -20.293183 -0.801019 -5.701875 15.924530 -7.808755 -0.121204 12.617027 0.356377 -1.066969 1.890095 4.963064 -0.331536 -4.924674 -8.687862 -8.117579 -9.390002 13.398240 -11.866215 17.445258 4.659724 -4.909300 8.293111 0.000000 0.000000 0.000000 0.098231 10.085201 8.088254 12.163211 -20.048800 2.158037 -5.970198 24.904939 10.188032 0.000000 0.000000 0.000000 -7.125000 0.000000 0.000000 -22.943129 20.008308 -14.949436 0.000000 0.000000 0.000000 -4.524155 -4.123034 24.184105 -25.141218 -36.342311 -8.375736 -8.582159 -4.358860 33.795150 0.000000 0.000000 0.000000 7.125000 0.000000 0.000000 28.707611 61.755480 -12.256432
-2.507837 17.888092 1.783256 178.648179 55.661745 180.485048 0.000000 0.000000 0.000000 -19.598816 6.115063 -1.184657 0.358772 3.847609 10.648314 0.441919 1.602960 -13.258125 3.447952 -11.386268 -33.595041 0.000000 0.000000 0.000000 12.292536 -6.968306 -22.427460 -3.424698 -11.344479 33.460321 -0.621200 -8.814135 -20.609722 -1.118375 -6.707636 18.855889 -8.713018 -0.217559 12.409747 0.219178 -1.315932 1.830984 5.364960 -0.446126 -4.818469 -9.038783 -8.381242 -9.007091 13.662781 -12.289722 17.644955 4.767591 -5.124506 8.383024 0.000000 0.000000 0.000000 1.890837 10.546287 13.822870 12.018155 -19.831792 2.108486 -0.265963 24.255359 9.440914 0.000000 0.000000 0.000000 -7.125000 0.000000 0.000000 -19.234978 20.720227 -11.872855 0.000000 0.000000 0.000000 -5.148843 -5.094112 19.757935 -22.687681 -33.738987 -6.966824 -8.836746 -2.844344 33.911841 0.000000 0.000000 0.000000 7.125000 0.000000 0.000000 28.562858 61.919615 -12.300020
-2.601691 17.860460 1.714290 176.392215 61.609525 177.938800 0.000000 0.000000 0.000000 -20.968279 9.208629 -1.033120 0.339016 3.741584 10.350703 0.363641 3.956859 -13.554678 3.162685 -10.953477 -32.123544 0.000000 0.000000 0.000000 10.951776 -10.111963 -22.824959 -4.254960 -12.487777 37.486801 -0.563184 -9.772023 -20.925583 -1.620581 -8.020283 22.779055 -9.465738 -0.425999 11.905789 -0.057050 -1.661801 1.778232 5.535407 -0.621262 -4.527182 -9.495705 -8.883067 -8.697149 14.029237 -13.059504 17.902442 4.879228 -5.495486 8.570378 0.000000 0.000000 0.000000 3.998298 10.803715 20.212840 11.844882 -19.571677 2.050012 5.412822 23.021680 9.239411 0.000000 0.000000 0.000000 -7.125000 0.000000 0.000000 -15.334240 20.825356 -9.217159 0.000000 0.000000 0.000000 -5.757854 -5.906112 14.877106 -20.838207 -31.636042 -5.966243 -10.195279 -2.267592 34.581714 0.000000 0.000000 0.000000 7.125000 0.000000 0.000000 27.838033 62.845012 -12.565267
